<svg width="196" height="53" viewBox="0 0 196 53" fill="none" xmlns="http://www.w3.org/2000/svg">
<path d="M186.42 0H3.19348L6.38697 5.09258L3.19348 10.0829L6.38697 21.0617L0 24.0559L3.19348 29.0463L11.9756 27.0501L8.78208 32.0405L3.19348 35.0347L6.38697 41.0231L3.19348 47.0116H8.78208L6.38697 53H194.403L188.815 47.0116L196 41.0231L192.008 35.0347L180.033 32.0405L188.815 29.0463L186.42 24.0559L192.008 18.0675L186.42 14.0752L188.815 10.0829L186.42 0Z" fill="white"/>
<path d="M60.6111 23L50.1667 24.7833L45.5 23.8916L50.1667 28.5728L46.8333 31.4706H61.5L59.2778 27.4582L60.6111 23Z" fill="#0B0B0B"/>
<path d="M74.7415 30.2H76.8055L76.7095 33.152C76.6615 33.656 76.5175 34.088 76.2775 34.496C75.8695 35.168 75.1255 35.816 73.6135 35.816C72.1015 35.816 71.2375 34.856 70.7335 33.872C70.4455 33.32 70.2295 32.672 70.0855 31.928L70.3015 26.432L70.5415 23.144C70.8775 22.424 71.2375 21.776 71.6455 21.224C72.3175 20.264 73.2535 19.304 74.2375 19.304C75.2215 19.304 75.9175 19.88 76.3735 20.456C76.6375 20.792 76.8775 21.176 77.0455 21.608V25.4L75.1975 25.424L75.3415 23.36C75.3415 22.952 75.3175 22.616 75.2455 22.304C75.1255 21.752 74.8375 21.224 74.2375 21.224C73.6375 21.224 73.2055 21.632 72.9415 22.016C72.7735 22.256 72.6535 22.52 72.5575 22.808L72.1975 25.856L71.9575 31.64C72.0535 32.144 72.1735 32.576 72.3415 32.984C72.6055 33.656 72.9895 34.328 73.5415 34.328C74.0935 34.328 74.4535 34.04 74.7175 33.728C74.8615 33.56 74.9815 33.344 75.0775 33.104L74.7415 30.2ZM79.0283 29.672L78.6683 21.632L82.1723 21.872L84.9083 21.632L84.8363 24.056L82.5563 23.48L80.9963 23.504L80.8763 25.256L80.9003 27.152L83.0123 27.032L82.9643 29.192L81.0683 28.952L81.0443 30.248L81.1403 33.56L84.8363 32.792V35.12H82.5083L78.6683 35.288L79.0283 29.672ZM93.7356 20.576V23.144L90.9756 23.024L90.7356 27.8L90.9756 35.12L88.6956 35.288L89.0796 28.688V23.096L86.2476 23.408V21.128L89.3436 21.176L93.7356 20.576ZM100.998 31.232L101.958 35.12H99.39L99.03 30.704L97.59 30.536L96.486 30.848L96.006 35.12L93.75 35.288L95.31 27.92L96.366 20.984H98.526L100.998 31.232ZM96.654 29.456L97.422 29.408L98.862 29.12L97.782 24.128L96.774 28.472L96.654 29.48V29.456ZM98.91 29.312L98.886 29.216L98.91 29.408V29.312ZM107.246 27.2L108.902 31.472L110.822 35.12L107.942 35.192L106.91 30.776L106.358 29.36L105.614 31.184L105.758 35.12H103.55L103.718 29.792L103.55 21.128H105.758L105.494 27.464V27.68L106.79 25.496L108.326 21.8L110.534 21.728L107.558 26.456L107.246 27.2ZM124.407 18.92V21.488L121.623 21.368L121.407 27.68L121.647 35.888L119.367 36.032L119.751 28.568V21.44L116.919 21.752V19.472L120.015 19.52L124.407 18.92ZM125.506 27.368L125.29 20.888H127.498L127.162 28.712L127.258 35.168H125.29L125.506 27.368ZM133.35 27.2L135.006 31.472L136.926 35.12L134.046 35.192L133.014 30.776L132.462 29.36L131.718 31.184L131.862 35.12H129.654L129.822 29.792L129.654 21.128H131.862L131.598 27.464V27.68L132.894 25.496L134.43 21.8L136.638 21.728L133.662 26.456L133.35 27.2ZM139.441 29.672L139.081 21.632L142.585 21.872L145.321 21.632L145.249 24.056L142.969 23.48L141.409 23.504L141.289 25.256L141.313 27.152L143.425 27.032L143.377 29.192L141.481 28.952L141.457 30.248L141.553 33.56L145.249 32.792V35.12H142.921L139.081 35.288L139.441 29.672ZM154.148 20.576V23.144L151.388 23.024L151.148 27.8L151.388 35.12L149.108 35.288L149.492 28.688V23.096L146.66 23.408V21.128L149.756 21.176L154.148 20.576Z" fill="#0B0B0B"/>
</svg>
