<svg width="44" height="18" viewBox="0 0 44 18" fill="none" xmlns="http://www.w3.org/2000/svg">
<path fill-rule="evenodd" clip-rule="evenodd" d="M8.56301 2.32063C8.05483 2.92862 7.24176 3.40816 6.42868 3.33966C6.32704 2.51759 6.72511 1.64414 7.19094 1.10466C7.69911 0.479541 8.58842 0.0342529 9.30833 0C9.39302 0.856322 9.06271 1.69552 8.56301 2.32063ZM9.30002 3.50228C8.58371 3.46059 7.93011 3.72008 7.40218 3.92967L7.40218 3.92968C7.06245 4.06455 6.77475 4.17877 6.55588 4.17877C6.31026 4.17877 6.01069 4.05845 5.67434 3.92335C5.23361 3.74633 4.72974 3.54394 4.20134 3.55366C2.9902 3.57078 1.86374 4.2644 1.24547 5.36906C-0.0249686 7.57837 0.915153 10.8495 2.14324 12.6478C2.74458 13.5384 3.46449 14.5146 4.41308 14.4803C4.83041 14.4644 5.1306 14.3356 5.44128 14.2023C5.79895 14.0489 6.17051 13.8895 6.75068 13.8895C7.31073 13.8895 7.66605 14.0447 8.00712 14.1938C8.33144 14.3355 8.64288 14.4715 9.10522 14.4632C10.0877 14.4461 10.706 13.5726 11.3073 12.6821C11.9562 11.7262 12.2414 10.7934 12.2847 10.6518L12.2898 10.6354C12.2887 10.6344 12.2808 10.6307 12.2667 10.6242L12.2666 10.6241L12.2666 10.6241C12.0496 10.5237 10.3916 9.75626 10.3757 7.69826C10.3597 5.97086 11.6908 5.09566 11.9003 4.95788L11.9004 4.95786C11.9131 4.94949 11.9217 4.94384 11.9256 4.9409C11.0786 3.67354 9.75738 3.53653 9.30002 3.50228ZM16.1012 14.3689V1.01883H21.0559C23.6137 1.01883 25.4008 2.79998 25.4008 5.4032C25.4008 8.00642 23.5798 9.8047 20.9881 9.8047H18.1508V14.3689H16.1012ZM18.1507 2.76579H20.5138C22.2924 2.76579 23.3087 3.72487 23.3087 5.41183C23.3087 7.09878 22.2924 8.06643 20.5053 8.06643H18.1507V2.76579ZM32.1677 12.7677C31.6257 13.8125 30.4315 14.4718 29.1441 14.4718C27.2385 14.4718 25.9087 13.3244 25.9087 11.5946C25.9087 9.88194 27.1961 8.89717 29.5761 8.75159L32.1339 8.59746V7.86102C32.1339 6.77349 31.4309 6.18263 30.1774 6.18263C29.1441 6.18263 28.3903 6.72211 28.2379 7.54418H26.3915C26.4508 5.81441 28.06 4.55561 30.2367 4.55561C32.5828 4.55561 34.1073 5.79728 34.1073 7.72401V14.3691H32.2101V12.7677H32.1677ZM29.6947 12.8876C28.6022 12.8876 27.9076 12.3567 27.9076 11.5432C27.9076 10.704 28.5767 10.2159 29.8556 10.1388L32.134 9.99326V10.7468C32.134 11.9971 31.0837 12.8876 29.6947 12.8876ZM40.4003 14.8915C39.5787 17.2293 38.6386 18 36.6398 18C36.4873 18 35.9791 17.9829 35.8606 17.9486V16.3473C35.9876 16.3644 36.301 16.3815 36.4619 16.3815C37.3682 16.3815 37.8763 15.9962 38.1897 14.9943L38.376 14.4034L34.9035 4.68419H37.0463L39.4601 12.5709H39.5025L41.9163 4.68419H43.9998L40.4003 14.8915Z" fill="white"/>
</svg>
