<svg width="33" height="22" viewBox="0 0 33 22" fill="none" xmlns="http://www.w3.org/2000/svg">
<g opacity="0.01">
<rect x="0.804688" y="0.5" width="32.1954" height="21" fill="white"/>
</g>
<rect x="12.6562" y="4.1582" width="8.49298" height="13.6802" fill="#FF5F00"/>
<path fill-rule="evenodd" clip-rule="evenodd" d="M13.5318 11.0003C13.5296 8.33124 14.772 5.8094 16.901 4.16145C13.2842 1.35824 8.09035 1.76655 4.96952 5.09943C1.8487 8.43231 1.8487 13.5708 4.96952 16.9037C8.09035 20.2366 13.2842 20.6449 16.901 17.8417C14.7714 16.1932 13.5289 13.6703 13.5318 11.0003Z" fill="#EB001B"/>
<path fill-rule="evenodd" clip-rule="evenodd" d="M30.9704 16.0527V16.7388H30.903V16.2194L30.7978 16.6653H30.7251L30.6199 16.2194V16.7388H30.5499V16.0527H30.6469L30.7601 16.5428L30.8733 16.0527H30.9704ZM30.3481 16.1704V16.7389H30.2888V16.1704H30.1621V16.0528H30.4829V16.1704H30.3481Z" fill="#F79E1B"/>
<path fill-rule="evenodd" clip-rule="evenodd" d="M31.1738 10.9998C31.1737 14.3306 29.2452 17.3691 26.2073 18.8246C23.1694 20.2802 19.5555 19.8973 16.9004 17.8387C19.0284 16.1893 20.2709 13.6678 20.2709 10.9986C20.2709 8.32934 19.0284 5.80783 16.9004 4.15848C19.5555 2.09983 23.1694 1.71699 26.2073 3.17255C29.2452 4.6281 31.1737 7.66652 31.1738 10.9974V10.9998Z" fill="#F79E1B"/>
</svg>
