<svg width="345" height="40" viewBox="0 0 345 40" fill="none" xmlns="http://www.w3.org/2000/svg">
<path d="M328.136 0H5.62118L11.2424 3.82682L5.62118 7.57682L11.2424 15.8268L0 18.0768L5.62118 21.8268L21.0794 20.3268L15.4582 24.0768L5.62118 26.3268L11.2424 30.8268L5.62118 35.3269H15.4582L11.2424 39.8269H342.189L332.352 35.3269L345 30.8268L337.974 26.3268L316.894 24.0768L332.352 21.8268L328.136 18.0768L337.974 13.5768L328.136 10.5768L332.352 7.57682L328.136 0Z" fill="white"/>
<path d="M133.303 20.294C133.933 20.456 134.221 20.762 134.383 21.032C134.473 21.194 134.527 21.356 134.545 21.554L134.365 25.208L132.349 26.378L129.487 26.45L129.685 20.852L129.559 14.012L132.907 14.39C133.105 14.642 133.267 14.912 133.429 15.218C133.699 15.722 133.951 16.388 133.951 17.036C133.951 17.972 134.077 17.99 133.303 20.294ZM131.125 15.47V19.25C131.359 19.304 131.575 19.304 131.791 19.268C132.133 19.214 132.511 19.088 132.637 18.674C132.763 18.188 132.763 17.594 132.709 17.108C132.691 16.82 132.655 16.532 132.619 16.244L132.151 15.668L131.125 15.47ZM132.853 24.47L132.925 21.806C132.907 21.716 132.871 21.608 132.817 21.518C132.727 21.374 132.583 21.194 132.295 21.122C132.007 21.05 131.737 21.014 131.539 20.996L131.215 20.96L131.233 24.938H132.277L132.853 24.47ZM140.697 23.174L141.417 26.09H139.491L139.221 22.778L138.141 22.652L137.313 22.886L136.953 26.09L135.261 26.216L136.431 20.69L137.223 15.488H138.843L140.697 23.174ZM137.439 21.842L138.015 21.806L139.095 21.59L138.285 17.846L137.529 21.104L137.439 21.86V21.842ZM139.131 21.734L139.113 21.662L139.131 21.806V21.734ZM141.11 15.596H141.218H142.838L143.18 17.612L144.026 20.42L144.584 18.134L145.286 15.596H146.924L145.88 18.098L144.53 22.814L144.89 26.234H143.144L143.342 22.616L142.478 19.574L141.11 15.596ZM152.446 23.174L153.166 26.09H151.24L150.97 22.778L149.89 22.652L149.062 22.886L148.702 26.09L147.01 26.216L148.18 20.69L148.972 15.488H150.592L152.446 23.174ZM149.188 21.842L149.764 21.806L150.844 21.59L150.034 17.846L149.278 21.104L149.188 21.86V21.842ZM150.88 21.734L150.862 21.662L150.88 21.806V21.734ZM158.248 23.354L159.688 26.09L157.528 26.144L156.754 22.832L156.016 21.266H155.872V26.09H154.36L154.594 20.996L154.36 15.866L155.998 15.794C156.556 15.776 157.042 15.83 157.474 15.938C158.212 16.136 158.95 16.532 159.004 17.414C159.094 19.196 158.662 20.06 158.23 20.348L157.33 20.978L158.248 23.354ZM157.492 17.396C157.348 16.982 156.322 17.036 155.962 17.09L155.89 20.042C156.16 19.988 156.862 19.862 157.294 19.52C157.798 19.106 157.69 17.882 157.492 17.396ZM169.179 25.082C168.981 25.532 168.783 25.928 168.423 26.288C167.937 26.774 167.253 27.116 166.533 27.062C165.831 27.008 165.363 26.72 165.021 26.414C164.823 26.234 164.679 26.036 164.553 25.802L164.193 22.526L165.939 22.742L165.831 24.92C165.885 25.028 165.939 25.118 166.029 25.208C166.173 25.352 166.389 25.514 166.731 25.532C167.073 25.55 167.271 25.496 167.397 25.424L167.577 25.28L167.919 24.398L166.911 21.158L165.327 19.016L164.679 18.098L164.463 16.118C164.895 14.534 166.515 14.228 167.001 14.138C167.469 14.048 168.549 14.282 168.927 14.75C169.125 14.984 169.233 15.56 169.305 16.082C169.359 16.388 169.377 16.712 169.395 17.054L167.703 17.288L167.829 16.136C167.739 15.974 167.649 15.83 167.523 15.704C167.325 15.506 167.019 15.344 166.677 15.47C166.317 15.614 166.173 16.01 166.101 16.37C166.047 16.586 166.029 16.82 166.047 17.072L167.991 20.096L169.521 24.056C169.539 24.11 169.431 24.308 169.413 24.362C169.341 24.632 169.269 24.848 169.179 25.082ZM171.076 22.004L170.806 15.974L173.434 16.154L175.486 15.974L175.432 17.792L173.722 17.36L172.552 17.378L172.462 18.692L172.48 20.114L174.064 20.024L174.028 21.644L172.606 21.464L172.588 22.436L172.66 24.92L175.432 24.344V26.09H173.686L170.806 26.216L171.076 22.004ZM179.875 20.15L181.117 23.354L182.557 26.09L180.397 26.144L179.623 22.832L179.209 21.77L178.651 23.138L178.759 26.09H177.103L177.229 22.094L177.103 15.596H178.759L178.561 20.348V20.51L179.533 18.872L180.685 16.1L182.341 16.046L180.109 19.592L179.875 20.15ZM188.925 23.174L189.645 26.09H187.719L187.449 22.778L186.369 22.652L185.541 22.886L185.181 26.09L183.489 26.216L184.659 20.69L185.451 15.488H187.071L188.925 23.174ZM185.667 21.842L186.243 21.806L187.323 21.59L186.513 17.846L185.757 21.104L185.667 21.86V21.842ZM187.359 21.734L187.341 21.662L187.359 21.806V21.734ZM194.726 23.354L196.166 26.09L194.006 26.144L193.232 22.832L192.494 21.266H192.35V26.09H190.838L191.072 20.996L190.838 15.866L192.476 15.794C193.034 15.776 193.52 15.83 193.952 15.938C194.69 16.136 195.428 16.532 195.482 17.414C195.572 19.196 195.14 20.06 194.708 20.348L193.808 20.978L194.726 23.354ZM193.97 17.396C193.826 16.982 192.8 17.036 192.44 17.09L192.368 20.042C192.638 19.988 193.34 19.862 193.772 19.52C194.276 19.106 194.168 17.882 193.97 17.396ZM201.728 23.174L202.448 26.09H200.522L200.252 22.778L199.172 22.652L198.344 22.886L197.984 26.09L196.292 26.216L197.462 20.69L198.254 15.488H199.874L201.728 23.174ZM198.47 21.842L199.046 21.806L200.126 21.59L199.316 17.846L198.56 21.104L198.47 21.86V21.842ZM200.162 21.734L200.144 21.662L200.162 21.806V21.734ZM208.97 16.046L208.79 20.654C208.808 21.608 208.844 22.454 208.88 23.21C208.934 24.506 208.97 25.892 208.97 26.09L207.62 26.072L207.278 26.09L205.946 21.068L205.172 19.016L205.064 20.996L205.334 26.378H203.642L203.912 21.104L203.75 15.596H205.334L206.54 19.736L207.674 23.066L207.71 21.104L207.368 16.046H208.97ZM210.448 21.05V18.8C210.448 17.144 212.032 15.416 213.13 15.416C213.688 15.416 214.138 15.686 214.48 15.956C214.678 16.118 214.858 16.298 215.02 16.496L215.362 19.178L213.724 19.25L213.814 18.152C213.778 17.918 213.724 17.72 213.67 17.54C213.544 17.234 213.382 16.928 213.04 16.928C212.698 16.928 212.464 17.09 212.32 17.288C212.23 17.396 212.176 17.522 212.122 17.648L211.816 21.014L212.104 23.462C212.104 24.182 212.464 24.632 213.112 24.632C213.418 24.632 213.67 24.434 213.868 24.236C213.976 24.11 214.066 23.984 214.156 23.822L214.102 21.554L213.076 21.878L213.058 20.204L214.12 20.312H215.362V23.39C215.308 23.912 215.164 24.38 214.966 24.776C214.624 25.46 214.03 26.144 212.914 26.144C211.798 26.144 211.186 25.442 210.844 24.722C210.646 24.308 210.502 23.84 210.448 23.3V21.05Z" fill="#0B0B0B" fill-opacity="0.690196"/>
</svg>
