<svg width="196" height="53" viewBox="0 0 196 53" fill="none" xmlns="http://www.w3.org/2000/svg">
<path d="M186.42 0H3.19348L6.38697 5.09258L3.19348 10.0829L6.38697 21.0617L0 24.0559L3.19348 29.0463L11.9756 27.0501L8.78208 32.0405L3.19348 35.0347L6.38697 41.0231L3.19348 47.0116H8.78208L6.38697 53H194.403L188.815 47.0116L196 41.0231L192.008 35.0347L180.033 32.0405L188.815 29.0463L186.42 24.0559L192.008 18.0675L186.42 14.0752L188.815 10.0829L186.42 0Z" fill="white"/>
<path d="M47.5 23.1818L49.5 21.5455L51.5 21L52.5 24.2727L52 27H48.5L47.5 23.1818Z" fill="#0B0B0B"/>
<path d="M51.8043 29L48.1522 29.5L45.5435 31.5L44.5 33.5L46.587 34H56.5L54.9348 31L51.8043 29Z" fill="#0B0B0B"/>
<path d="M70.8233 27.896L72.2393 28.064H73.8953V32.144C73.8713 32.168 73.8713 32.192 73.8713 32.216C73.8713 32.288 73.8473 32.336 73.8473 32.432L73.7273 34.616L73.6553 37.712L71.8313 36.992L72.1673 34.736C71.7593 34.952 71.2313 35.072 70.6073 35.072C69.1433 35.072 68.3273 34.136 67.8713 33.176C67.6073 32.624 67.4153 31.976 67.3433 31.256V28.28L67.3913 26.768C67.4153 25.88 67.4633 24.68 67.4633 23.552C67.4633 21.32 69.5513 19.064 71.0393 19.064C71.7833 19.064 72.3833 19.424 72.8393 19.784C73.1033 20 73.3433 20.216 73.5593 20.48L74.0153 24.08L71.8313 24.176L71.9513 22.688C71.9033 22.376 71.8313 22.112 71.7593 21.872C71.5913 21.464 71.3513 21.056 70.8953 21.056C70.4393 21.056 70.1513 21.272 69.9593 21.536C69.8393 21.68 69.7673 21.848 69.6953 22.016L69.1433 28.232L69.5273 31.496C69.5273 32.432 69.8873 33.608 70.7513 33.608C71.1593 33.608 71.5433 33.392 71.8313 33.176C71.9993 33.056 72.1673 32.912 72.2873 32.744L72.1913 29.696L70.8473 30.128L70.8233 27.896ZM82.2621 31.232L83.2221 35.12H80.6541L80.2941 30.704L78.8541 30.536L77.7501 30.848L77.2701 35.12L75.0141 35.288L76.5741 27.92L77.6301 20.984H79.7901L82.2621 31.232ZM77.9181 29.456L78.6861 29.408L80.1261 29.12L79.0461 24.128L78.0381 28.472L77.9181 29.48V29.456ZM80.1741 29.312L80.1501 29.216L80.1741 29.408V29.312ZM89.8056 27.752C90.6456 27.944 91.0296 28.376 91.2456 28.736C91.3656 28.952 91.4376 29.168 91.4616 29.408L91.3176 33.464L88.6296 35.024L84.8136 35.12L84.9816 28.472L84.8136 20.984L89.4216 21.272C89.6856 21.632 89.9016 21.992 90.1176 22.376C90.4776 23.048 90.8136 23.912 90.8136 24.776C90.8136 25.664 90.5736 26.36 90.3096 26.912C90.1416 27.224 89.9736 27.488 89.8056 27.752ZM86.9016 22.928L86.9496 26.84C87.2616 26.912 87.5736 26.912 87.8616 26.864C88.3416 26.792 88.7976 26.624 88.9656 26.072C89.1336 25.424 89.1576 24.896 89.1336 24.44C89.1096 24.176 89.0856 23.96 89.0376 23.744L88.4376 22.976L86.9016 22.928ZM89.3016 32.504V29.744C89.2776 29.624 89.2296 29.48 89.1576 29.36C89.0376 29.168 88.8456 28.928 88.4616 28.832C88.0776 28.736 87.7176 28.688 87.4536 28.664L87.0216 28.616L87.1416 33.128H88.5336L89.3016 32.504ZM93.2089 21.008V20.48L95.5369 20.6L95.1769 26.936C95.1529 27.464 95.1529 27.992 95.1529 28.52C95.1529 29.456 95.1529 30.608 95.3209 31.592C95.5849 33.584 96.7369 33.56 97.2409 33.056C97.5049 32.792 97.6489 31.424 97.7689 30.08C97.8409 29.288 97.8889 28.424 97.9369 27.464L97.5289 21.152H99.7609L99.4969 27.344C99.5449 28.16 99.5689 28.928 99.5929 29.648C99.5929 30.872 99.6169 32.216 99.4969 32.72C99.2569 33.776 98.3689 35.336 96.4969 35.336C95.5609 35.336 94.7449 34.736 94.1929 34.088C93.8569 33.728 93.5689 33.296 93.3049 32.84L93.4009 29.144L93.2089 21.008ZM109.036 21.728L108.796 27.872C108.82 29.144 108.868 30.272 108.916 31.28C108.988 33.008 109.036 34.856 109.036 35.12L107.236 35.096L106.78 35.12L105.004 28.424L103.972 25.688L103.828 28.328L104.188 35.504H101.932L102.292 28.472L102.076 21.128H104.188L105.796 26.648L107.308 31.088L107.356 28.472L106.9 21.728H109.036ZM111.007 28.4V25.4C111.007 23.192 113.119 20.888 114.583 20.888C115.327 20.888 115.927 21.248 116.383 21.608C116.647 21.824 116.887 22.064 117.103 22.328L117.559 25.904L115.375 26L115.495 24.536C115.447 24.224 115.375 23.96 115.303 23.72C115.135 23.312 114.919 22.904 114.463 22.904C114.007 22.904 113.695 23.12 113.503 23.384C113.383 23.528 113.311 23.696 113.239 23.864L112.831 28.352L113.215 31.616C113.215 32.576 113.695 33.176 114.559 33.176C114.967 33.176 115.303 32.912 115.567 32.648C115.711 32.48 115.831 32.312 115.951 32.096L115.879 29.072L114.511 29.504L114.487 27.272L115.903 27.416H117.559V31.52C117.487 32.216 117.295 32.84 117.031 33.368C116.575 34.28 115.783 35.192 114.295 35.192C112.807 35.192 111.991 34.256 111.535 33.296C111.271 32.744 111.079 32.12 111.007 31.4V28.4ZM127.809 27.896L129.225 28.064H130.881V32.144C130.857 32.168 130.857 32.192 130.857 32.216C130.857 32.288 130.833 32.336 130.833 32.432L130.713 34.616L130.641 37.712L128.817 36.992L129.153 34.736C128.745 34.952 128.217 35.072 127.593 35.072C126.129 35.072 125.313 34.136 124.857 33.176C124.593 32.624 124.401 31.976 124.329 31.256V28.28L124.377 26.768C124.401 25.88 124.449 24.68 124.449 23.552C124.449 21.32 126.537 19.064 128.025 19.064C128.769 19.064 129.369 19.424 129.825 19.784C130.089 20 130.329 20.216 130.545 20.48L131.001 24.08L128.817 24.176L128.937 22.688C128.889 22.376 128.817 22.112 128.745 21.872C128.577 21.464 128.337 21.056 127.881 21.056C127.425 21.056 127.137 21.272 126.945 21.536C126.825 21.68 126.753 21.848 126.681 22.016L126.129 28.232L126.513 31.496C126.513 32.432 126.873 33.608 127.737 33.608C128.145 33.608 128.529 33.392 128.817 33.176C128.985 33.056 129.153 32.912 129.273 32.744L129.177 29.696L127.833 30.128L127.809 27.896ZM138.096 31.472L140.016 35.12L137.136 35.192L136.104 30.776L135.12 28.688H134.928V35.12H132.912L133.224 28.328L132.912 21.488L135.096 21.392C135.84 21.368 136.488 21.44 137.064 21.584C138.048 21.848 139.032 22.376 139.104 23.552C139.224 25.928 138.648 27.08 138.072 27.464L136.872 28.304L138.096 31.472ZM137.088 23.528C136.896 22.976 135.528 23.048 135.048 23.12L134.952 27.056C135.312 26.984 136.248 26.816 136.824 26.36C137.496 25.808 137.352 24.176 137.088 23.528ZM141.096 21.008V20.48L143.424 20.6L143.064 26.936C143.04 27.464 143.04 27.992 143.04 28.52C143.04 29.456 143.04 30.608 143.208 31.592C143.472 33.584 144.624 33.56 145.128 33.056C145.392 32.792 145.536 31.424 145.656 30.08C145.728 29.288 145.776 28.424 145.824 27.464L145.416 21.152H147.648L147.384 27.344C147.432 28.16 147.456 28.928 147.48 29.648C147.48 30.872 147.504 32.216 147.384 32.72C147.144 33.776 146.256 35.336 144.384 35.336C143.448 35.336 142.632 34.736 142.08 34.088C141.744 33.728 141.456 33.296 141.192 32.84L141.288 29.144L141.096 21.008ZM155.892 23.456C156.18 24.536 156.06 25.928 155.892 27.056C155.772 27.704 155.628 28.376 155.46 29.048C155.1 29.192 154.74 29.336 154.332 29.456C153.66 29.672 152.724 29.888 151.836 29.864L152.004 35.12H149.82L150.084 28.928L149.82 20.984L151.932 21.128C152.58 21.2 153.156 21.32 153.684 21.488C154.62 21.8 155.604 22.376 155.892 23.456ZM154.74 25.928C154.86 25.04 154.524 23.768 154.068 23.384C153.66 23.048 152.316 23.12 151.86 23.12L151.74 26.888L151.764 27.872H153.852L154.236 27.224C154.428 26.84 154.668 26.384 154.74 25.928Z" fill="#0B0B0B"/>
</svg>
