<svg width="73" height="16" viewBox="0 0 73 16" fill="none" xmlns="http://www.w3.org/2000/svg">
<path fill-rule="evenodd" clip-rule="evenodd" d="M7.35969 0.100486C8.19157 -0.0350516 9.04506 -0.0193371 9.88088 0.0641459C10.6558 0.224237 11.4376 0.402989 12.1487 0.761475C13.5875 1.448 14.8123 2.56078 15.6284 3.93088C16.3051 5.19688 16.7707 6.61707 16.7009 8.06771C16.7206 11.0456 14.8339 13.883 12.1614 15.149C10.4289 15.9731 8.41354 16.086 6.56218 15.6342C5.30993 15.2492 4.10189 14.6265 3.18946 13.6699C2.32026 12.8636 1.66418 11.8362 1.24775 10.7303C0.704616 9.37005 0.655509 7.85753 0.886315 6.42457C1.30864 4.29625 2.62374 2.34471 4.48493 1.21327C5.35118 0.642634 6.34709 0.303791 7.35969 0.100486ZM6.24782 3.92218C5.6212 3.98602 4.93664 4.20602 4.58994 4.77174C4.20692 5.31361 4.16696 5.99135 4.12899 6.63522L4.12898 6.63532C4.12587 6.68814 4.12277 6.74074 4.11949 6.79302C4.11168 6.95543 4.09718 7.11763 4.08268 7.27987C4.05342 7.60718 4.02415 7.93463 4.04976 8.26428C4.06885 8.48689 4.08232 8.71022 4.09579 8.93358L4.09579 8.93359C4.12946 9.49172 4.16315 10.0501 4.28449 10.5979C4.43476 11.2883 5.05647 11.8236 5.74201 11.9493C7.01967 12.1797 8.32123 12.1594 9.61499 12.1393L9.61511 12.1393C9.73354 12.1375 9.85191 12.1356 9.97018 12.134C10.4996 12.1045 11.0289 12.0505 11.5524 11.967C12.3362 11.8649 13.0286 11.2265 13.1573 10.4407C13.3822 9.47724 13.4225 8.4833 13.3557 7.50017C13.2299 6.86962 12.784 6.30096 12.1781 6.07015C11.905 5.93823 11.6022 5.93904 11.3052 5.93983C11.2528 5.93997 11.2006 5.94011 11.1488 5.93952C10.5644 5.94024 9.98012 5.93991 9.39584 5.93959H9.39554C8.37324 5.93902 7.35109 5.93845 6.32934 5.94345C6.21186 5.9456 6.10222 5.90543 5.99356 5.86562L5.99355 5.86562C5.95323 5.85085 5.91304 5.83612 5.87264 5.82363C5.86969 5.60363 5.87755 5.27461 6.17317 5.26871C6.94295 5.25133 7.71345 5.25646 8.48389 5.26158H8.4839H8.48391C9.49862 5.26833 10.5132 5.27507 11.5259 5.23041C11.4159 4.71969 11.1046 4.18638 10.5683 4.04495C10.0841 3.91531 9.58321 3.8495 9.08526 3.80334C8.94323 3.80157 8.80098 3.79885 8.65862 3.79613H8.65861C7.85196 3.78072 7.04173 3.76524 6.24782 3.92218ZM11.7321 8.21206C11.4738 8.14232 11.1644 8.24447 11.074 8.51063C11.0173 8.81704 11.1082 9.11224 11.1985 9.4055C11.2364 9.52867 11.2742 9.65149 11.3009 9.77466C11.3304 9.79186 11.3746 9.81741 11.4188 9.84295C11.463 9.86848 11.5072 9.894 11.5366 9.91118C11.6378 9.85225 11.7409 9.79922 11.848 9.75305C11.8595 9.49386 11.922 9.24456 11.9844 8.99537C12.0121 8.8848 12.0398 8.77425 12.0631 8.66286C12.0149 8.4792 11.8941 8.31125 11.7321 8.21206Z" fill="#01ACD7"/>
<path fill-rule="evenodd" clip-rule="evenodd" d="M26.7912 2.54832C26.0339 2.25171 25.1932 2.2851 24.3996 2.38332C22.6828 2.6485 21.1762 3.95869 20.6675 5.61951C20.4367 6.27755 20.4416 6.98765 20.5025 7.67418C20.7077 9.43027 22.0287 10.9722 23.7053 11.5095C24.8937 11.869 26.2648 11.8807 27.3618 11.2374C27.5051 11.1582 27.6352 11.0603 27.7654 10.9623L27.7654 10.9623C27.8869 10.8709 28.0084 10.7795 28.1407 10.7031L28.1427 10.7944C28.1589 11.5183 28.1774 12.337 27.628 12.8835C27.2597 13.3333 26.7028 13.57 26.14 13.6565C24.9231 13.8794 23.6365 13.464 22.7319 12.6311C22.5309 12.8359 22.3202 13.0316 22.1095 13.2272C21.7687 13.5438 21.4279 13.8602 21.1281 14.2153C22.0749 15.111 23.2741 15.7573 24.5745 15.9292C25.8454 16.0893 27.2125 16.0117 28.345 15.3585C29.3055 14.8252 30.0618 13.9148 30.3584 12.8531C30.5425 12.324 30.54 11.7589 30.5375 11.206V11.206L30.5371 11.1127C30.5361 8.1849 30.5361 5.25808 30.5371 2.33028C30.0769 2.32458 29.6167 2.32483 29.1565 2.32509C28.8241 2.32528 28.4917 2.32546 28.1593 2.3234C28.1596 2.40382 28.16 2.48424 28.1605 2.56465C28.1619 2.82602 28.1634 3.0874 28.1574 3.34877C27.7478 3.01386 27.295 2.71823 26.7912 2.54832ZM23.7751 5.09977C24.1689 4.75012 24.6915 4.61655 25.2012 4.54092C26.2158 4.38672 27.357 4.85128 27.8766 5.75977C28.0861 6.12787 28.0774 6.54392 28.0687 6.95605C28.0657 7.10033 28.0627 7.24414 28.0691 7.38524C28.1545 8.2515 27.4798 9.01561 26.7068 9.31026C25.7728 9.66187 24.6207 9.68544 23.8055 9.03624C22.5838 8.11989 22.5592 6.02888 23.7751 5.09977ZM47.658 2.32529C46.6424 2.31841 45.5837 2.6219 44.852 3.35458C44.8455 3.26157 44.8395 3.16869 44.8334 3.07594L44.8334 3.07531L44.8334 3.07464L44.8333 3.07394L44.8333 3.07367C44.8228 2.91254 44.8123 2.7518 44.7999 2.59145C44.0004 2.58163 43.201 2.57868 42.4015 2.59145C42.4026 5.01541 42.4025 7.43936 42.4023 9.86332C42.4022 11.6813 42.4021 13.4992 42.4025 15.3172C42.9642 15.3534 43.5274 15.3503 44.0903 15.3471H44.0904H44.0904H44.0905H44.0905H44.0905C44.3523 15.3456 44.614 15.3442 44.8755 15.3467C44.8938 14.2236 44.8898 13.0999 44.8857 11.9762C44.8843 11.5924 44.8829 11.2086 44.8824 10.8248C46.6464 12.2264 49.4543 12.0722 51.0405 10.4644C52.7671 8.73286 52.8663 5.64693 51.2036 3.83977C50.3285 2.83404 48.9849 2.27814 47.658 2.32529ZM44.9982 5.97096C45.2565 5.19408 46.0461 4.7305 46.8132 4.57827C47.6038 4.41817 48.4878 4.61755 49.0987 5.15577C50.1338 6.09667 50.1417 7.90482 49.1654 8.88992C48.1862 9.8377 46.4537 9.82002 45.4804 8.87224C45.0659 8.5059 44.8489 7.93232 44.8852 7.38428C44.8933 7.2398 44.8895 7.0932 44.8856 6.94646V6.9464C44.8768 6.61434 44.8681 6.28155 44.9982 5.97096ZM35.2299 2.44592C36.6256 2.16503 38.1528 2.33396 39.3678 3.11084C40.292 3.66871 40.9952 4.57327 41.3095 5.60551C41.7406 6.96187 41.5472 8.51367 40.7398 9.69422C39.9374 10.8836 38.5673 11.6124 37.153 11.7489C36.2818 11.8078 35.3812 11.7783 34.5572 11.4611C33.192 11.0024 32.0468 9.87592 31.6441 8.4842C31.212 7.1799 31.4123 5.68703 32.1529 4.53202C32.8384 3.45165 33.9875 2.71405 35.2299 2.44592ZM35.8141 4.59088C35.4664 4.69008 35.1413 4.86294 34.8565 5.08392C33.8704 5.8608 33.6298 7.39689 34.332 8.43699C35.1345 9.75995 37.2048 10.0212 38.2911 8.91334C38.8224 8.42521 39.0749 7.69645 39.0041 6.98242C39.0641 5.39919 37.308 4.12338 35.8141 4.59088ZM58.6129 2.38406C57.1839 2.19647 55.636 2.39585 54.4505 3.26898C53.766 3.8131 53.1806 4.5615 53.0647 5.45133C53.4059 5.50977 53.7444 5.58358 54.0829 5.6574L54.083 5.65741C54.5239 5.75357 54.9648 5.84973 55.4121 5.91196C55.6055 5.13508 56.2793 4.5173 57.0699 4.38962C57.5816 4.30123 58.114 4.32775 58.6119 4.479C59.047 4.62043 59.378 5.09677 59.1875 5.55053C58.8325 5.87413 58.3497 5.97199 57.8898 6.06519L57.8897 6.0652C57.8304 6.07723 57.7715 6.08917 57.7132 6.10152C57.6337 6.11292 57.5539 6.1242 57.4738 6.13551C56.3063 6.30043 55.0925 6.47189 54.0989 7.14653C52.8702 8.00591 52.8653 10.0282 54.0017 10.9671C54.9396 11.7735 56.2606 11.8658 57.4373 11.7096C58.2515 11.5574 59.0716 11.2048 59.5911 10.534C59.5941 10.6995 59.5941 10.865 59.5941 11.0306C59.5941 11.1962 59.5941 11.3619 59.597 11.5279C59.7762 11.5277 59.9554 11.5271 60.1347 11.5265H60.135C60.7035 11.5247 61.2726 11.5229 61.8422 11.5318C61.8445 10.4223 61.8441 9.31302 61.8438 8.20391V8.20386V8.20381C61.8436 7.37204 61.8433 6.54035 61.8442 5.70865C61.853 5.03391 61.6065 4.37685 61.2352 3.82095C60.6322 2.97434 59.6088 2.5471 58.6129 2.38406ZM55.5211 9.10574C55.3914 8.79833 55.6419 8.49484 55.8923 8.34359C56.3974 8.0652 56.966 7.96135 57.5334 7.85768C58.2172 7.73277 58.8995 7.60814 59.4674 7.17876C59.462 7.31357 59.4663 7.45468 59.4707 7.59775V7.59786V7.59798C59.4854 8.08129 59.5008 8.58694 59.1462 8.94761C58.4607 9.63119 57.4166 9.75691 56.4944 9.69798C56.1114 9.67539 55.6075 9.5428 55.5211 9.10574ZM62.8311 2.5846C62.567 2.58508 62.303 2.58556 62.0389 2.58556C62.7356 4.04135 63.4478 5.48983 64.16 6.9384C64.8282 8.29756 65.4965 9.6568 66.1522 11.0223C65.8299 11.7308 65.4795 12.4264 65.1291 13.1219C64.7588 13.8571 64.3885 14.5923 64.0513 15.3427C64.3351 15.3415 64.619 15.3437 64.903 15.3459C65.5342 15.3508 66.1658 15.3556 66.7965 15.3231C68.8659 11.0822 70.9333 6.84123 72.9988 2.59833C72.0706 2.57475 71.1435 2.57868 70.2163 2.5944C69.3265 4.5479 68.4258 6.49747 67.5203 8.44312C67.2533 7.86658 66.9834 7.29132 66.7136 6.71609C66.2728 5.77637 65.8321 4.83674 65.4038 3.89182C65.3352 3.73798 65.2596 3.58719 65.184 3.43644C65.0454 3.15988 64.9069 2.88345 64.8115 2.5885C64.1514 2.58219 63.4912 2.58339 62.8311 2.5846Z" fill="white"/>
</svg>
