<svg width="24" height="24" viewBox="0 0 24 24" fill="none" xmlns="http://www.w3.org/2000/svg">
<path d="M1 7.5L8 2L17.5 3L22.5 12.5L17.5 22H8L1 17V7.5Z" fill="white"/>
<path d="M11.192 10.872H9.56C9.608 10.312 9.704 9.816 9.88 9.384C10.168 8.632 10.728 7.88 11.784 7.88C12.84 7.88 13.336 8.52 13.592 9.144C13.736 9.512 13.8 9.944 13.816 10.408L12.424 12.424L11.16 14.424L10.904 15.736L13.736 15.528L13.832 16.92H12.088H9.32L9.56 16.088C9.608 15.8 9.64 15.544 9.688 15.304L9.832 14.472C9.832 14.456 10.488 13.4 11.144 12.328L12.456 10.232C12.456 9.032 12.008 8.888 11.688 8.888C11.512 8.888 11.384 8.968 11.272 9.048C11.208 9.096 11.16 9.144 11.112 9.208L10.92 9.816L11.192 10.872Z" fill="#0B0B0B"/>
</svg>
