<svg width="24" height="24" viewBox="0 0 24 24" fill="none" xmlns="http://www.w3.org/2000/svg">
<path d="M1 7.5L8 2L17.5 3L22.5 12.5L17.5 22H8L1 17V7.5Z" fill="#232323"/>
<path d="M10.856 10.488H9.496C9.496 9.336 9.944 8.68 10.392 8.248C10.664 8.008 10.952 7.832 11.288 7.72L11.8 7.752C12.104 7.8 12.408 7.816 12.648 7.88C12.856 8.056 13.032 8.248 13.208 8.488C13.48 8.888 13.768 9.48 13.768 10.232C13.768 10.808 13.512 11.272 13.272 11.592C13.128 11.784 12.952 11.944 12.776 12.088C13.208 12.088 13.432 12.568 13.544 13.032C13.608 13.304 13.64 13.624 13.656 13.96V15.144C13.48 15.496 13.304 15.816 13.112 16.088C12.744 16.584 12.28 17.032 11.72 17.032C11.16 17.032 10.68 16.776 10.312 16.504C10.104 16.344 9.912 16.168 9.736 15.96L9.32 13.96L10.792 14.024L10.856 15.208C10.936 15.32 11.016 15.4 11.096 15.48C11.24 15.608 11.416 15.736 11.592 15.736C11.768 15.736 11.944 15.592 12.088 15.448C12.168 15.368 12.264 15.256 12.344 15.144V13.496C12.344 13.24 12.248 12.968 12.136 12.76C12.072 12.648 12.008 12.536 11.928 12.424L10.84 12.984V11.432L11.48 11.512C12.312 11.512 12.328 10.568 12.328 9.88C12.328 9.192 12.008 8.84 11.512 8.84C11.272 8.84 11.08 8.984 10.952 9.128C10.872 9.208 10.808 9.304 10.744 9.4L10.856 10.488Z" fill="white"/>
</svg>
